<?xml version="1.0" encoding="UTF-8"?>
<svg id="Calque_1" data-name="Calque 1" xmlns="http://www.w3.org/2000/svg" xmlns:xlink="http://www.w3.org/1999/xlink" viewBox="0 0 134.55 59.44">
  <defs>
    <style>
      .cls-1 {
        fill: none;
      }

      .cls-2 {
        clip-path: url(#clippath);
      }

      .cls-3 {
        fill: #fff;
      }

      .cls-4 {
        fill: #e30613;
      }

      .cls-5 {
        fill: url(#Dégradé_sans_nom_2);
      }
    </style>
    <clipPath id="clippath">
      <path class="cls-1" d="m79.05.07c-.63.03-1.04.32-1.04.94v27.71c0,.48.35.92.88.92h49.47c.44,0,.8-.04,1.01-.63,0,0,5.01-15.69,5.1-15.97.05-.18.08-.33.08-.46,0-.31-.17-.53-.52-.76C117.92,1.5,93.83,0,82.88,0c-1.57,0-2.87.03-3.83.07"/>
    </clipPath>
    <linearGradient id="Dégradé_sans_nom_2" data-name="Dégradé sans nom 2" x1="-875.37" y1="579.61" x2="-873.08" y2="579.61" gradientTransform="translate(48844.87 32326.18) scale(55.75 -55.75)" gradientUnits="userSpaceOnUse">
      <stop offset="0" stop-color="#842968"/>
      <stop offset=".25" stop-color="#af1d73"/>
      <stop offset=".81" stop-color="#dc161b"/>
      <stop offset="1" stop-color="#dc161b"/>
    </linearGradient>
  </defs>
  <g>
    <polygon class="cls-3" points="78.01 34.31 79.25 34.31 80.46 37.52 80.47 37.52 81.71 34.31 82.86 34.31 80.84 39.22 79.98 39.22 78.01 34.31"/>
    <path class="cls-3" d="m85.27,36.76c0,.23.04.44.11.63.07.19.17.36.31.5.14.14.3.25.48.33.19.08.4.12.63.12s.44-.04.63-.12c.19-.08.35-.19.48-.33.13-.14.24-.31.31-.5.07-.19.11-.4.11-.63s-.03-.44-.11-.63c-.07-.19-.17-.36-.31-.5-.14-.14-.29-.25-.48-.33-.19-.08-.4-.12-.63-.12s-.44.04-.63.12c-.19.08-.35.19-.48.33-.13.14-.24.31-.31.5-.07.19-.11.4-.11.63m-1.12,0c0-.39.07-.75.2-1.07.13-.32.31-.59.55-.81.24-.22.52-.4.84-.52.32-.12.68-.18,1.06-.18s.74.06,1.06.18c.32.12.6.29.84.52.24.22.42.5.55.81.13.32.2.67.2,1.07s-.06.75-.2,1.07c-.13.32-.31.59-.55.81-.23.22-.51.4-.84.52-.32.12-.68.18-1.06.18s-.74-.06-1.06-.18c-.32-.12-.6-.29-.84-.52-.24-.22-.42-.5-.55-.81-.13-.32-.2-.67-.2-1.07"/>
    <polygon class="cls-3" points="92.43 37.12 90.58 34.31 91.93 34.31 92.97 36.15 94.07 34.31 95.35 34.31 93.51 37.12 93.51 39.22 92.43 39.22 92.43 37.12"/>
    <path class="cls-3" d="m98.78,35.74l-.6,1.53h1.2l-.6-1.53Zm-.42-1.43h.89l2.13,4.91h-1.22l-.42-1.04h-1.9l-.41,1.04h-1.19l2.12-4.91Z"/>
    <path class="cls-3" d="m107.37,38.87c-.32.17-.65.29-1,.36-.35.07-.7.11-1.06.11-.38,0-.74-.06-1.06-.18-.32-.12-.6-.29-.84-.52-.24-.22-.42-.5-.55-.81-.13-.32-.2-.67-.2-1.07s.07-.75.2-1.07c.13-.32.32-.59.55-.81.23-.22.51-.4.84-.52.32-.12.68-.18,1.06-.18s.75.05,1.09.14c.33.1.62.26.87.49l-.76.83c-.15-.15-.31-.27-.5-.35-.18-.08-.42-.12-.69-.12-.23,0-.44.04-.63.12-.19.08-.35.19-.48.33-.14.14-.24.31-.31.5-.07.2-.11.4-.11.63s.03.44.11.63c.07.19.17.36.31.5.13.14.29.25.48.33.19.08.39.12.63.12s.44-.03.61-.08c.17-.05.31-.11.41-.16v-.8h-.88v-1h1.92v2.56Z"/>
    <polygon class="cls-3" points="109.4 34.31 112.73 34.31 112.73 35.31 110.48 35.31 110.48 36.22 112.6 36.22 112.6 37.22 110.48 37.22 110.48 38.22 112.85 38.22 112.85 39.22 109.4 39.22 109.4 34.31"/>
    <path class="cls-3" d="m118.9,37.32c0,.29-.04.56-.13.8-.09.25-.22.46-.39.64-.17.18-.39.32-.65.42-.26.1-.56.15-.89.15s-.64-.05-.9-.15c-.26-.1-.47-.24-.65-.42-.17-.18-.3-.39-.39-.64-.09-.24-.13-.51-.13-.8v-3.01h1.08v2.97c0,.15.03.29.07.42.05.13.12.24.2.34.09.09.19.17.31.22.12.05.26.08.4.08s.28-.03.39-.08c.12-.05.22-.13.31-.22.09-.1.16-.21.2-.34.05-.13.07-.27.07-.42v-2.97h1.08v3.01Z"/>
    <path class="cls-3" d="m122.01,36.34h.64c.1,0,.2,0,.31-.01.11,0,.21-.03.3-.06.09-.03.16-.09.22-.16.06-.07.09-.18.09-.31,0-.12-.03-.22-.08-.3-.05-.07-.11-.13-.19-.17-.08-.04-.17-.06-.27-.08-.1-.01-.2-.02-.3-.02h-.71v1.12Zm-1.08-2.03h1.9c.25,0,.48.03.71.07.22.05.42.13.59.24.17.11.3.27.4.46.1.19.15.43.15.72,0,.35-.09.64-.27.88-.18.24-.44.4-.79.46l1.25,2.07h-1.29l-1.03-1.96h-.53v1.96h-1.08v-4.91Z"/>
    <path class="cls-3" d="m128.89,35.51c-.09-.11-.21-.19-.36-.25-.15-.05-.29-.08-.42-.08-.08,0-.16,0-.24.03-.08.02-.16.05-.24.09-.07.04-.13.09-.18.16-.05.06-.07.14-.07.24,0,.15.06.26.17.34.11.08.25.15.42.2.17.05.35.11.54.17.19.06.37.13.54.23.17.1.31.24.42.41.11.17.17.4.17.69s-.05.51-.15.72c-.1.2-.24.37-.41.5-.17.13-.37.23-.6.3-.23.06-.47.1-.72.1-.32,0-.61-.05-.89-.14-.27-.1-.53-.25-.76-.47l.77-.84c.11.15.25.26.42.34.17.08.34.12.52.12.09,0,.18,0,.27-.03.09-.02.17-.05.24-.09.07-.04.13-.09.17-.16.04-.06.07-.14.07-.23,0-.15-.06-.27-.17-.35-.11-.08-.25-.16-.43-.22-.17-.06-.36-.12-.55-.18-.2-.06-.38-.14-.56-.24-.17-.1-.31-.24-.43-.4-.11-.17-.17-.39-.17-.66s.05-.5.16-.69c.11-.2.24-.36.42-.5.17-.13.37-.23.6-.3.22-.07.46-.1.7-.1.28,0,.54.04.8.12.26.08.49.21.7.39l-.74.81Z"/>
    <g class="cls-2">
      <rect class="cls-5" x="78.01" width="56.54" height="29.64"/>
    </g>
    <path class="cls-3" d="m89.28,17.78c-1.82-.88-3.05-1.34-2.75-2.22.35-1.04,2.18-1.44,3.83-1.4.84.02,1.43.13,2.11.28l.6-1.89c-.86-.16-1.48-.24-2.51-.26-3.32-.08-6.32.84-7.08,2.78-.92,2.29,1.67,3.59,3.92,4.65,1.79.84,3.19,1.65,2.7,2.7-.39.82-1.65,1.2-3.48,1.16-1.59-.04-3.57-.5-5.13-1.28l-.93,2.01c1.15.53,3.51,1.26,5.54,1.31,3.79.08,6.25-.87,7.24-2.94,1.16-2.44-1.73-3.78-4.04-4.9"/>
    <path class="cls-3" d="m94.43,21.23s.05.06.1.06.08-.02.09-.06c.02-.07,1.85-5.73,1.85-5.73,1.87,2.67,3.71,6.17,4.7,9.88h3.04l1.5-4.69s.05-.06.1-.06.09.01.09.06c.46,2.95,3.39,4.93,7.54,4.93,2.69,0,5.11-.7,5.72-1.03l1.57-4.96h6.05l.61-1.92h-6.04l1.04-3.25h7.21l.62-1.99h-10.12l-3.43,10.74c-.73.18-1.63.27-2.57.27-2.03,0-3.65-.48-4.57-1.55-.69-.81-.97-1.85-.8-3.01.41-2.77,3.1-4.51,6.71-4.51.76,0,1.54.04,2.24.14l.71-2.09c-.87-.13-1.92-.19-2.95-.19-3.2,0-5.97,1.1-7.77,3.04-.06.06-.12.06-.15.06-.06,0-.09,0-.08-.06l.9-2.83h-2.64l-2.89,9.05c-.92-2.67-2.81-6.19-5.12-9.05h-2.83l-2.12,6.59c1.07.78,1.4,1.36,1.68,2.17"/>
  </g>
  <path class="cls-3" d="m134.27,46.95H.43c-.15,0-.28-.12-.28-.28s.12-.28.28-.28h133.84c.15,0,.28.12.28.28s-.12.28-.28.28Z"/>
  <g>
    <path class="cls-4" d="m56.48,33.68c0,3.16-2.56,5.66-5.6,5.66H5.81c-3.1,0-5.66-2.5-5.66-5.66V5.6C.15,2.44,2.72,0,5.81,0h45.06C53.91,0,56.48,2.44,56.48,5.6v28.08Z"/>
    <path class="cls-3" d="m52.37,33.68c0,.89-.6,1.61-1.49,1.61H5.81c-.89,0-1.55-.71-1.55-1.61V5.6c0-.9.65-1.61,1.55-1.61h45.06c.89,0,1.49.71,1.49,1.61v28.08Z"/>
    <path class="cls-4" d="m17.38,32.55H7.9V6.8h9.47c6.68,0,10.25,4.17,10.25,12.75,0,7.45-2.38,12.94-10.25,13"/>
    <path class="cls-4" d="m40.39,32.55h-10.01V6.8h10.49c4.95,0,7.63,2.03,7.63,6.85,0,2.51-2.09,4.29-4.35,5.43,3.16.89,5.31,2.8,5.31,6.02,0,5.25-4.41,7.45-9.06,7.45"/>
    <path class="cls-3" d="m36.51,10.79h1.73c2.03,0,3.94.66,3.94,3.1,0,2.2-1.49,3.1-3.52,3.1h-2.14v-6.2Z"/>
    <path class="cls-3" d="m38.72,28.37h-2.21v-6.62h2.26c2.44,0,4.11.6,4.11,3.22s-1.97,3.4-4.17,3.4"/>
    <path class="cls-3" d="m16.3,28.37h-2.21V10.85h1.25c5.6,0,6.14,4.05,6.14,9.24,0,5.66-1.91,8.28-5.19,8.28"/>
  </g>
  <g>
    <path class="cls-3" d="m.68,50.99c.4,0,.7.28.7.65s-.3.65-.7.65-.68-.31-.68-.65.29-.65.68-.65Zm-.53,2.11h1.08v4.31H.15v-4.31Z"/>
    <path class="cls-3" d="m2.47,53.09h1.02v.69h.02c.2-.43.6-.8,1.32-.8,1.16,0,1.57.82,1.57,1.7v2.72h-1.08v-2.18c0-.47-.04-1.26-.79-1.26-.71,0-.99.52-.99,1.09v2.35h-1.08v-4.31Z"/>
    <path class="cls-3" d="m10.37,51.05h1.13v2.69h.05l2.63-2.69h1.53l-2.97,2.93,3.17,3.42h-1.59l-2.75-3.12h-.06v3.12h-1.13v-6.35Z"/>
    <path class="cls-3" d="m18.55,52.99c1.3,0,2.34.91,2.34,2.26s-1.04,2.26-2.34,2.26-2.34-.91-2.34-2.26,1.04-2.26,2.34-2.26Zm0,3.55c.79,0,1.26-.62,1.26-1.29s-.47-1.29-1.26-1.29-1.26.62-1.26,1.29.48,1.29,1.26,1.29Z"/>
    <path class="cls-3" d="m24.02,52.99c1.3,0,2.34.91,2.34,2.26s-1.04,2.26-2.34,2.26-2.34-.91-2.34-2.26,1.04-2.26,2.34-2.26Zm0,3.55c.79,0,1.26-.62,1.26-1.29s-.47-1.29-1.26-1.29-1.26.62-1.26,1.29.48,1.29,1.26,1.29Z"/>
    <path class="cls-3" d="m27.37,53.09h1.02v.65h.02c.31-.52.88-.75,1.48-.75,1.33,0,2.13.99,2.13,2.26s-.85,2.26-2.08,2.26c-.81,0-1.24-.38-1.46-.65h-.03v2.59h-1.08v-6.35Zm2.3.86c-.79,0-1.26.62-1.26,1.29s.48,1.29,1.26,1.29,1.26-.62,1.26-1.29-.48-1.29-1.26-1.29Z"/>
    <path class="cls-3" d="m33.89,55.62c.07.64.56,1.02,1.16,1.02.54,0,.89-.25,1.16-.58l.77.58c-.5.62-1.14.86-1.82.86-1.3,0-2.34-.91-2.34-2.26s1.04-2.26,2.34-2.26c1.2,0,2.02.84,2.02,2.34v.3h-3.28Zm2.21-.81c0-.63-.42-1.02-1.09-1.02-.64,0-1.03.4-1.11,1.02h2.21Z"/>
    <path class="cls-3" d="m38.18,53.09h1.08v.68h.02c.23-.49.71-.79,1.27-.79.14,0,.26.03.39.06v1.04c-.18-.04-.35-.08-.52-.08-1.01,0-1.16.85-1.16,1.09v2.31h-1.08v-4.31Z"/>
    <path class="cls-3" d="m44.36,56.81h-.03c-.31.48-.81.7-1.38.7-.8,0-1.57-.44-1.57-1.29,0-1.4,1.63-1.5,2.71-1.5h.27v-.12c0-.53-.41-.81-.99-.81-.45,0-.86.18-1.15.45l-.57-.57c.48-.48,1.15-.69,1.83-.69,1.84,0,1.84,1.33,1.84,1.94v2.48h-.97v-.59Zm-.06-1.34h-.22c-.59,0-1.61.04-1.61.66,0,.39.4.56.75.56.74,0,1.09-.39,1.09-.99v-.24Z"/>
    <path class="cls-3" d="m45.98,54.01v-.91h.89v-1.25h1.08v1.25h1.18v.91h-1.18v1.88c0,.43.13.7.6.7.19,0,.45-.04.58-.13v.91c-.22.11-.6.14-.85.14-1.14,0-1.41-.51-1.41-1.52v-1.97h-.89Z"/>
    <path class="cls-3" d="m50.52,50.99c.4,0,.7.28.7.65s-.3.65-.7.65-.68-.31-.68-.65.29-.65.68-.65Zm-.53,2.11h1.08v4.31h-1.08v-4.31Z"/>
    <path class="cls-3" d="m54.44,52.99c1.3,0,2.34.91,2.34,2.26s-1.04,2.26-2.34,2.26-2.34-.91-2.34-2.26,1.04-2.26,2.34-2.26Zm0,3.55c.79,0,1.26-.62,1.26-1.29s-.47-1.29-1.26-1.29-1.26.62-1.26,1.29.48,1.29,1.26,1.29Z"/>
    <path class="cls-3" d="m57.79,53.09h1.02v.69h.02c.2-.43.6-.8,1.32-.8,1.16,0,1.57.82,1.57,1.7v2.72h-1.08v-2.18c0-.47-.04-1.26-.79-1.26-.71,0-.99.52-.99,1.09v2.35h-1.08v-4.31Z"/>
    <path class="cls-3" d="m65.65,57.83l-.74-.27,2.8-6.96.74.29-2.8,6.94Z"/>
    <path class="cls-3" d="m72.6,55.62c.07.64.56,1.02,1.16,1.02.54,0,.89-.25,1.16-.58l.77.58c-.5.62-1.14.86-1.82.86-1.3,0-2.34-.91-2.34-2.26s1.04-2.26,2.34-2.26c1.2,0,2.02.84,2.02,2.34v.3h-3.28Zm2.21-.81c0-.63-.42-1.02-1.09-1.02-.64,0-1.03.4-1.11,1.02h2.21Z"/>
    <path class="cls-3" d="m76.89,53.09h1.02v.69h.02c.2-.43.6-.8,1.32-.8,1.16,0,1.57.82,1.57,1.7v2.72h-1.08v-2.18c0-.47-.04-1.26-.79-1.26-.71,0-.99.52-.99,1.09v2.35h-1.08v-4.31Z"/>
    <path class="cls-3" d="m87.64,54.39c-.25-.26-.53-.43-.82-.43-.79,0-1.26.62-1.26,1.29s.48,1.29,1.26,1.29c.33,0,.64-.14.83-.4l.72.77c-.44.44-1.17.6-1.55.6-1.3,0-2.34-.91-2.34-2.26s1.04-2.26,2.34-2.26c.55,0,1.15.2,1.56.65l-.74.74Z"/>
    <path class="cls-3" d="m91.15,52.99c1.3,0,2.34.91,2.34,2.26s-1.04,2.26-2.34,2.26-2.34-.91-2.34-2.26,1.04-2.26,2.34-2.26Zm0,3.55c.79,0,1.26-.62,1.26-1.29s-.47-1.29-1.26-1.29-1.26.62-1.26,1.29.48,1.29,1.26,1.29Z"/>
    <path class="cls-3" d="m96.63,52.99c1.3,0,2.34.91,2.34,2.26s-1.04,2.26-2.34,2.26-2.34-.91-2.34-2.26,1.04-2.26,2.34-2.26Zm0,3.55c.79,0,1.26-.62,1.26-1.29s-.47-1.29-1.26-1.29-1.26.62-1.26,1.29.48,1.29,1.26,1.29Z"/>
    <path class="cls-3" d="m99.97,53.09h1.02v.65h.02c.31-.52.88-.75,1.48-.75,1.33,0,2.13.99,2.13,2.26s-.85,2.26-2.08,2.26c-.81,0-1.24-.38-1.46-.65h-.03v2.59h-1.08v-6.35Zm2.3.86c-.79,0-1.26.62-1.26,1.29s.48,1.29,1.26,1.29,1.26-.62,1.26-1.29-.48-1.29-1.26-1.29Z"/>
    <path class="cls-3" d="m106.49,55.62c.07.64.56,1.02,1.16,1.02.54,0,.89-.25,1.16-.58l.77.58c-.5.62-1.14.86-1.82.86-1.3,0-2.34-.91-2.34-2.26s1.04-2.26,2.34-2.26c1.2,0,2.02.84,2.02,2.34v.3h-3.28Zm2.21-.81c0-.63-.42-1.02-1.09-1.02-.64,0-1.03.4-1.11,1.02h2.21Zm-.64-3.77h1.22l-1.26,1.29h-.84l.89-1.29Z"/>
    <path class="cls-3" d="m110.78,53.09h1.08v.68h.02c.23-.49.71-.79,1.27-.79.14,0,.26.03.39.06v1.04c-.18-.04-.35-.08-.52-.08-1.01,0-1.16.85-1.16,1.09v2.31h-1.08v-4.31Z"/>
    <path class="cls-3" d="m116.96,56.81h-.03c-.31.48-.81.7-1.38.7-.8,0-1.57-.44-1.57-1.29,0-1.4,1.63-1.5,2.71-1.5h.27v-.12c0-.53-.41-.81-.99-.81-.45,0-.86.18-1.15.45l-.57-.57c.48-.48,1.15-.69,1.83-.69,1.84,0,1.84,1.33,1.84,1.94v2.48h-.97v-.59Zm-.06-1.34h-.22c-.59,0-1.61.04-1.61.66,0,.39.4.56.75.56.74,0,1.09-.39,1.09-.99v-.24Z"/>
    <path class="cls-3" d="m118.59,54.01v-.91h.89v-1.25h1.08v1.25h1.18v.91h-1.18v1.88c0,.43.13.7.6.7.19,0,.45-.04.58-.13v.91c-.22.11-.6.14-.85.14-1.14,0-1.41-.51-1.41-1.52v-1.97h-.89Z"/>
    <path class="cls-3" d="m123.13,50.99c.4,0,.7.28.7.65s-.3.65-.7.65-.68-.31-.68-.65.29-.65.68-.65Zm-.53,2.11h1.08v4.31h-1.08v-4.31Z"/>
    <path class="cls-3" d="m127.04,52.99c1.3,0,2.34.91,2.34,2.26s-1.04,2.26-2.34,2.26-2.34-.91-2.34-2.26,1.04-2.26,2.34-2.26Zm0,3.55c.79,0,1.26-.62,1.26-1.29s-.47-1.29-1.26-1.29-1.26.62-1.26,1.29.48,1.29,1.26,1.29Z"/>
    <path class="cls-3" d="m130.39,53.09h1.02v.69h.02c.2-.43.6-.8,1.32-.8,1.16,0,1.57.82,1.57,1.7v2.72h-1.08v-2.18c0-.47-.04-1.26-.79-1.26-.71,0-.99.52-.99,1.09v2.35h-1.08v-4.31Z"/>
  </g>
</svg>