<svg aria-hidden="true" viewBox="0 0 69 34" xmlns="http://www.w3.org/2000/svg" class="css-ob18a8"><path d="M54.2787 18.3733L54.2333 18.3428C54.2035 18.3243 54.188 18.3274 54.1578 18.358C53.916 18.603 53.4174 18.9703 52.9642 18.9703C52.6167 18.9703 52.4203 18.756 52.4203 18.4346C52.4203 18.2662 52.4505 18.0978 52.5109 17.8989L53.4326 14.7152H55.019C55.0492 14.7152 55.0794 14.7152 55.0945 14.6693L55.2003 14.2737C55.2154 14.2125 55.1701 14.2125 55.1549 14.2125H53.5535L54.0369 12.6489C54.052 12.6029 54.0218 12.5876 53.9916 12.5876H53.8858C53.8556 12.5876 53.8254 12.5876 53.7952 12.6335C53.0851 13.705 52.1937 14.2407 50.8036 14.4703L50.713 14.4856C50.5922 14.5009 50.5922 14.5162 50.577 14.5621L50.5619 14.6387C50.5468 14.7152 50.6072 14.7152 50.6224 14.7152H51.5742L50.6677 17.8683C50.5619 18.2356 50.5015 18.5417 50.5015 18.8019C50.5015 19.6132 51.1209 20.0625 51.9217 20.0625C53.221 20.0625 54.0823 18.756 54.2938 18.4499C54.315 18.4191 54.3131 18.3966 54.2787 18.3733ZM58.9683 16.8766C57.5553 17.1305 56.5497 17.5825 56.5497 18.3188C56.5497 18.7464 56.926 18.975 57.3085 18.975C58.0858 18.975 58.6002 18.2261 59.0241 16.9398C59.0411 16.8883 59.0044 16.87 58.9683 16.8766ZM60.9639 15.8625C60.9639 16.1125 60.9374 16.3599 60.8528 16.7L60.0539 19.854C60.0415 19.9039 60.0045 19.9039 59.9921 19.9039H58.1784C58.1537 19.9039 58.1413 19.8665 58.1537 19.8414L59.0421 18.35C59.0648 18.3136 59.0613 18.2869 59.0297 18.275L58.9927 18.2625C58.9541 18.2497 58.9235 18.2579 58.894 18.3L58.6472 18.6375C58.0056 19.4625 57.2468 20.0625 56.198 20.0625C55.3096 20.0625 54.7173 19.4875 54.7173 18.7125C54.7173 17.5375 55.871 16.95 56.9198 16.8C57.7162 16.6863 58.6452 16.5417 59.0393 16.4882C59.1014 16.4798 59.1529 16.4358 59.1717 16.3752C59.2857 16.0068 59.3999 15.6313 59.3999 15.2875C59.3999 14.8 59.1778 14.4375 58.4498 14.4375C57.8576 14.4375 57.3887 14.7875 57.3887 15.55C57.3887 15.6875 57.401 15.85 57.438 16.025C57.438 16.05 57.4257 16.075 57.3887 16.075H55.6119C55.5996 16.075 55.5777 16.0658 55.5749 16.0375C55.465 14.9583 56.4756 14.0625 58.5238 14.0625C60.3815 14.0625 60.9639 15.0012 60.9639 15.8625ZM47.7768 14.0625C46.0617 14.0625 45.1363 14.8875 45.1363 15.9125C45.1363 16.6 45.5435 17.075 46.3949 17.4625L47.2832 17.8875C48.0236 18.225 48.2086 18.475 48.2086 18.8125C48.2086 19.3125 47.7768 19.6875 46.9254 19.6875C46.2591 19.6875 45.8396 19.35 45.8396 18.85C45.8396 18.55 46.0008 18.286 46.2344 18C46.2579 17.9712 46.2476 17.9375 46.2106 17.9375H44.5872C44.5502 17.9375 44.5393 17.9576 44.5255 17.9875C44.4827 18.0801 44.433 18.2948 44.433 18.475C44.433 19.4 45.235 20.0625 46.8391 20.0625C48.6775 20.0625 49.7633 19.15 49.7633 18.075C49.7633 17.4375 49.4179 17.025 48.4307 16.5625L47.53 16.15C46.9624 15.8875 46.7403 15.625 46.7403 15.275C46.7403 14.8 47.1351 14.4375 47.8015 14.4375C48.406 14.4375 48.8009 14.85 48.8009 15.3625C48.8009 15.5617 48.7304 15.8013 48.6166 16.0013C48.5991 16.0319 48.6031 16.075 48.659 16.075H50.1582C50.2075 16.075 50.2199 16.05 50.2199 16C50.2939 15.175 49.5906 14.0625 47.7768 14.0625ZM65.8669 14.0625C64.9755 14.0625 64.4013 14.5927 63.661 15.5723L63.1171 16.2917C63.0718 16.3529 63.0567 16.3529 63.0264 16.3376L62.9962 16.3223C62.966 16.307 62.9509 16.2917 62.9811 16.2458L64.2654 14.2737C64.2805 14.2431 64.2654 14.2125 64.2351 14.2125H62.3768C62.3617 14.2125 62.3315 14.2125 62.3163 14.2584L60.9414 19.8427C60.9264 19.9039 60.9566 19.9039 60.9868 19.9039H62.6789C62.6941 19.9039 62.7243 19.9039 62.7394 19.858L63.3437 17.3631C63.6761 15.9703 64.2805 15.2815 64.9301 15.2815C65.2474 15.2815 65.4741 15.4499 65.4741 15.7866C65.4741 16.1845 65.2323 16.7356 64.7337 17.3172C64.7035 17.3478 64.7337 17.3785 64.7489 17.3938L64.7791 17.4244C64.7942 17.4397 64.8244 17.4397 64.8697 17.409C66.2144 16.5979 67 15.8172 67 15.0672C67 14.4856 66.577 14.0625 65.8669 14.0625ZM42.5452 15.5125C42.5452 14.75 42.212 14.425 41.7431 14.425C41.0645 14.425 40.5463 15.05 40.2132 16.3125C39.9787 17.2125 39.8059 18 39.8059 18.6125C39.8059 19.375 40.1391 19.7 40.608 19.7C41.2866 19.7 41.8048 19.0625 42.138 17.8125C42.3847 16.9125 42.5452 16.125 42.5452 15.5125ZM44.3096 16.4375C44.3096 18.475 42.7303 20.0625 40.5339 20.0625C39.2384 20.0625 38.0415 19.2375 38.0415 17.6875C38.0415 15.65 39.6332 14.0625 41.8172 14.0625C43.1251 14.0625 44.3096 14.8875 44.3096 16.4375ZM32.568 14.2125H30.891C30.8608 14.2125 30.8305 14.2125 30.8154 14.2584L30.1356 17.0876C29.8333 18.3428 29.1081 19.0315 28.3376 19.0315C27.9297 19.0315 27.7332 18.8478 27.7332 18.4958C27.7332 18.3428 27.7483 18.2203 27.7937 18.006L28.7153 14.2737C28.7304 14.2125 28.6851 14.2125 28.67 14.2125H26.9778C26.9627 14.2125 26.9325 14.2125 26.9174 14.2584L26.026 17.8835C25.9655 18.1131 25.89 18.4192 25.89 18.7407C25.89 19.4907 26.3734 20.0625 27.3556 20.0625C28.4131 20.0625 29.1988 19.4754 29.8333 18.6489L30.0902 18.3121C30.1356 18.2509 30.1506 18.2509 30.1809 18.2662L30.2111 18.2815C30.2413 18.2968 30.2564 18.3121 30.2262 18.358L29.3348 19.8427C29.3197 19.8734 29.3348 19.9039 29.365 19.9039H31.1781C31.1931 19.9039 31.2234 19.9039 31.2384 19.858L32.6133 14.2737C32.6285 14.2125 32.5832 14.2125 32.568 14.2125ZM16.4364 18.1L16.1773 18.225C16.1156 18.25 16.1131 18.3015 16.1032 18.3375C16.0417 18.5626 15.9798 18.7875 15.8934 19.0375C14.9927 21.7125 12.5373 23.675 9.576 23.675C5.91139 23.675 2.96242 20.7 2.96242 17.025C2.96242 13.3625 5.91139 10.3375 9.576 10.3375C12.5373 10.3375 14.6719 12.3 15.5479 14.2625L10.2299 16.225C10.1683 16.2375 10.1066 16.2 10.1066 16.125L9.69939 11.8C9.69939 11.75 9.6747 11.725 9.62538 11.725H9.50199C9.45261 11.725 9.42792 11.75 9.42792 11.8L9.02075 16.125C9.02075 16.2 8.95905 16.2375 8.89736 16.225L5.07235 15.15C5.03535 15.1375 4.99835 15.15 4.98597 15.2L4.93665 15.3125C4.92428 15.3625 4.93665 15.3875 4.97366 15.4125L8.1077 17.0125C8.15702 17.025 8.15702 17.0875 8.1077 17.1125L4.99835 18.7C4.97366 18.7125 4.96128 18.75 4.97366 18.7875L5.01066 18.9125C5.03535 18.9625 5.06004 18.975 5.10936 18.9625L8.89736 17.9C8.95905 17.8875 9.02075 17.9125 9.02075 18L9.42792 22.325C9.42792 22.375 9.45261 22.4 9.50199 22.4H9.62538C9.6747 22.4 9.69939 22.375 9.69939 22.325L10.1066 18C10.1066 17.9125 10.1683 17.8875 10.2299 17.9L14.055 18.975C14.092 18.9875 14.129 18.975 14.1413 18.925L14.1907 18.8C14.203 18.7625 14.1907 18.725 14.1537 18.7125L11.032 17.1125C10.9826 17.0875 10.9826 17.025 11.032 17.0125L16.0292 14.55C16.0909 14.525 16.1032 14.4625 16.0909 14.3875C15.4369 11.875 12.8828 9.5 9.4156 9.5C5.19574 9.5 2 12.8375 2 17.0125C2 21.2 5.19574 24.5 9.4156 24.5C12.9321 24.5 15.4616 22.1875 16.3007 19.175C16.387 18.85 16.498 18.35 16.498 18.1375C16.498 18.1 16.4734 18.0875 16.4364 18.1ZM23.4201 14.0625C21.2238 14.0625 19.6691 15.7677 19.6691 17.5812C19.6691 19.1562 20.7265 20.0625 22.1985 20.0625C23.1486 20.0625 24.3678 19.6505 25.2531 18.0469C25.2697 18.017 25.248 17.9927 25.2347 17.9832L25.1839 17.9486C25.1498 17.9235 25.1296 17.9268 25.113 17.9475C24.7746 18.3683 24.074 18.975 23.0252 18.975C21.9517 18.975 21.5569 18.125 21.631 17.1C21.705 16.0375 22.4453 14.4125 23.3584 14.4125C23.8766 14.4125 24.0247 14.925 24.0247 15.475C24.0247 15.7667 23.9849 16.0584 23.9411 16.2688C23.9323 16.3109 23.9009 16.3446 23.8599 16.3562L22.0132 16.8926C21.9727 16.9031 21.9525 16.9194 21.9483 16.9593L21.9412 17.0214C21.9355 17.0682 21.9584 17.0875 22.0071 17.0875H25.403C25.514 17.0875 25.5732 17.0375 25.5855 16.9875C25.6719 16.7 25.7212 16.4 25.7212 16.1125C25.7212 15 25.0118 14.0625 23.4201 14.0625ZM38.2639 15.0672C38.2639 15.8172 37.4782 16.5979 36.1336 17.409C36.0882 17.4397 36.058 17.4397 36.0429 17.4244L36.0127 17.3938C35.9975 17.3785 35.9674 17.3478 35.9975 17.3172C36.4962 16.7356 36.7379 16.1845 36.7379 15.7866C36.7379 15.4499 36.5112 15.2815 36.1939 15.2815C35.5443 15.2815 34.9399 15.9703 34.6076 17.3631L34.0032 19.858C33.9881 19.9039 33.9579 19.9039 33.9428 19.9039H32.2506C32.2204 19.9039 32.1902 19.9039 32.2053 19.8427L33.5801 14.2584C33.5953 14.2125 33.6255 14.2125 33.6406 14.2125H35.499C35.5292 14.2125 35.5443 14.2431 35.5292 14.2737L34.245 16.2458C34.2147 16.2917 34.2298 16.307 34.26 16.3223L34.2903 16.3376C34.3205 16.3529 34.3356 16.3529 34.3809 16.2917L34.9249 15.5723C35.6652 14.5927 36.2393 14.0625 37.1307 14.0625C37.8408 14.0625 38.2639 14.4856 38.2639 15.0672Z"></path></svg>