<?xml version="1.0" encoding="UTF-8" standalone="no"?>
<svg
   width="64.822914mm"
   height="30.42709mm"
   viewBox="0 0 64.822915 30.427089"
   version="1.1"
   id="svg4458"
   inkscape:version="1.1.1 (c3084ef, 2021-09-22)"
   sodipodi:docname="IDF_RER_A_logo.svg"
   xmlns:inkscape="http://www.inkscape.org/namespaces/inkscape"
   xmlns:sodipodi="http://sodipodi.sourceforge.net/DTD/sodipodi-0.dtd"
   xmlns="http://www.w3.org/2000/svg"
   xmlns:svg="http://www.w3.org/2000/svg"
   xmlns:rdf="http://www.w3.org/1999/02/22-rdf-syntax-ns#"
   xmlns:cc="http://creativecommons.org/ns#"
   xmlns:dc="http://purl.org/dc/elements/1.1/">
  <defs
     id="defs4452" />
  <sodipodi:namedview
     id="base"
     pagecolor="#ffffff"
     bordercolor="#666666"
     borderopacity="1.0"
     inkscape:pageopacity="0.0"
     inkscape:pageshadow="2"
     inkscape:zoom="0.56927304"
     inkscape:cx="45.672284"
     inkscape:cy="189.71564"
     inkscape:document-units="mm"
     inkscape:current-layer="layer1"
     inkscape:document-rotation="0"
     showgrid="false"
     fit-margin-top="0"
     fit-margin-left="0"
     fit-margin-right="0"
     fit-margin-bottom="0"
     inkscape:window-width="1280"
     inkscape:window-height="756"
     inkscape:window-x="0"
     inkscape:window-y="25"
     inkscape:window-maximized="0"
     inkscape:pagecheckerboard="0" />
  <metadata
     id="metadata4455">
    <rdf:RDF>
      <cc:Work
         rdf:about="">
        <dc:format>image/svg+xml</dc:format>
        <dc:type
           rdf:resource="http://purl.org/dc/dcmitype/StillImage" />
        <dc:title />
      </cc:Work>
    </rdf:RDF>
  </metadata>
  <g
     inkscape:label="Calque 1"
     inkscape:groupmode="layer"
     id="layer1"
     transform="translate(-202.35143,-181.65288)">
    <g
       id="g27479"
       transform="matrix(1.1591269,0,0,-1.1591269,202.35131,828.18607)">
      <g
         id="g366">
        <path
           style="fill:#25303b;fill-opacity:1;fill-rule:nonzero;stroke:none;stroke-width:1.15756"
           d="M 20.344232,531.52601 H 5.9059721 c -3.262,0 -5.90587003855,2.64387 -5.90587003855,5.90587 v 14.43826 c 0,3.262 2.64387003855,5.90587 5.90587003855,5.90587 H 20.344232 c 3.262,0 5.90587,-2.64387 5.90587,-5.90587 v -14.43826 c 0,-3.262 -2.64387,-5.90587 -5.90587,-5.90587"
           id="path315" />
        <path
           style="fill:#ffffff;fill-opacity:1;fill-rule:nonzero;stroke:none;stroke-width:1.15756"
           d="m 24.543862,537.43188 v 14.43826 c 0,2.31975 -1.87988,4.19963 -4.19963,4.19963 H 5.9059721 c -2.31975,0 -4.19963,-1.87988 -4.19963,-4.19963 v -14.43826 c 0,-2.31975 1.87988,-4.19963 4.19963,-4.19963 H 20.344232 c 2.31975,0 4.19963,1.87988 4.19963,4.19963"
           id="path27" />
      </g>
      <g
         id="g373">
        <path
           id="path326"
           style="fill:#25303b;fill-opacity:1;fill-rule:nonzero;stroke:none;stroke-width:1.54341"
           d="m 23.320312,61.332031 c -0.612733,0 -0.96289,0.4811 -0.96289,1.00586 v 10.283203 c 0,0.612733 0.611714,0.917968 1.179687,0.917968 0.657494,0 1.181641,-0.305235 1.181641,-0.917968 v -3.980469 h 1.007812 l 1.966797,4.416016 c 0.1744,0.350346 0.481685,0.482421 0.832032,0.482421 0.699173,0 1.70762,-0.656226 1.3125,-1.443359 l -1.882813,-3.9375 c 1.13904,-0.571067 2.101563,-1.576107 2.101563,-3.371094 0,-2.361426 -1.749612,-3.455078 -3.455079,-3.455078 z m 1.398438,2.011719 h 0.830078 c 1.09428,0 2.056641,0.481565 2.056641,1.707031 0,1.487854 -1.355594,1.837891 -2.1875,1.837891 H 24.71875 Z"
           transform="matrix(0.75000002,0,0,-0.75000002,1.0184095e-4,595.27601)" />
        <path
           style="fill:#25303b;fill-opacity:1;fill-rule:nonzero;stroke:none;stroke-width:1.15756"
           d="m 15.881832,540.97518 c 0,0.39472 -0.26277,0.81955 -0.72232,0.81955 h -2.49454 v 2.26419 h 2.0674 c 0.45955,0 0.72232,0.39473 0.72232,0.75588 0,0.39242 -0.26277,0.75473 -0.72232,0.75473 h -2.0674 v 2.06625 h 2.29776 c 0.45955,0 0.72232,0.45955 0.72232,0.82071 0,0.39357 -0.26277,0.82071 -0.72232,0.82071 h -3.34767 c -0.45955,0 -0.72116,-0.36116 -0.72116,-0.75473 v -7.67926 c 0,-0.45839 0.45955,-0.68759 0.88554,-0.68759 h 3.38007 c 0.45955,0 0.72232,0.4584 0.72232,0.81956"
           id="path324" />
        <path
           id="path322"
           style="fill:#25303b;fill-opacity:1;fill-rule:nonzero;stroke:none;stroke-width:1.54341"
           d="m 6.3867188,61.332031 c -0.6112,0 -0.9628907,0.4811 -0.9628907,1.00586 v 10.283203 c 0,0.612733 0.6121207,0.917968 1.1816407,0.917968 0.6559466,0 1.1816406,-0.305235 1.1816406,-0.917968 v -3.980469 h 1.0058594 l 1.9687502,4.416016 c 0.175946,0.350346 0.481684,0.482421 0.832031,0.482421 0.699173,0 1.706073,-0.656226 1.3125,-1.443359 l -1.880859,-3.9375 c 1.137506,-0.571067 2.097656,-1.576107 2.097656,-3.371094 0,-2.361426 -1.748065,-3.455078 -3.4550782,-3.455078 z m 1.4003906,2.011719 h 0.8320312 c 1.0927333,0 2.0546874,0.481565 2.0546874,1.707031 0,1.487854 -1.3556066,1.837891 -2.1874999,1.837891 H 7.7871094 Z"
           transform="matrix(0.75000002,0,0,-0.75000002,1.0184095e-4,595.27601)" />
      </g>
    </g>
    <g
       id="g16256"
       transform="matrix(1.3417597,0,0,-1.3417004,-244.0039,727.94418)">
      <path
         d="m 375.874,384.4854 h -12.473 c -2.818,0 -5.102,2.285 -5.102,5.103 v 12.472 c 0,2.818 2.284,5.103 5.102,5.103 h 12.473 c 2.818,0 5.102,-2.285 5.102,-5.103 v -12.472 c 0,-2.818 -2.284,-5.103 -5.102,-5.103"
         style="fill:#eb2132;fill-opacity:1;fill-rule:nonzero;stroke:none"
         id="path115" />
      <path
         d="m 370.0801,397.2461 c -0.255,0.766 -0.459,1.752 -0.51,2.195 h -0.034 c -0.051,-0.443 -0.289,-1.429 -0.545,-2.195 l -1.02,-3.147 h 3.13 z m 2.416,-7.417 -0.748,2.279 h -4.441 l -0.748,-2.279 h -2.62 l 4.253,12.027 h 2.875 l 4.27,-12.027 z"
         style="fill:#ffffff;fill-opacity:1;fill-rule:nonzero;stroke:none"
         id="path119" />
    </g>
  </g>
</svg>
