<?xml version="1.0" encoding="UTF-8" standalone="no"?>
<svg
   xmlns:dc="http://purl.org/dc/elements/1.1/"
   xmlns:cc="http://creativecommons.org/ns#"
   xmlns:rdf="http://www.w3.org/1999/02/22-rdf-syntax-ns#"
   xmlns:svg="http://www.w3.org/2000/svg"
   xmlns="http://www.w3.org/2000/svg"
   xmlns:sodipodi="http://sodipodi.sourceforge.net/DTD/sodipodi-0.dtd"
   xmlns:inkscape="http://www.inkscape.org/namespaces/inkscape"
   sodipodi:docname="IDF Tram 12 logo.svg"
   inkscape:version="1.0beta2 (6465177, 2020-02-22)"
   id="svg58851"
   version="1.1"
   viewBox="0 0 66.214432 30.691668"
   height="30.691668mm"
   width="66.214432mm">
  <defs
     id="defs58845" />
  <sodipodi:namedview
     inkscape:window-maximized="0"
     inkscape:window-y="0"
     inkscape:window-x="0"
     inkscape:window-height="967"
     inkscape:window-width="1264"
     fit-margin-bottom="0"
     fit-margin-right="0"
     fit-margin-left="0"
     fit-margin-top="0"
     showgrid="false"
     inkscape:document-rotation="0"
     inkscape:current-layer="layer1"
     inkscape:document-units="mm"
     inkscape:cy="48.973516"
     inkscape:cx="125.12964"
     inkscape:zoom="4.4314041"
     inkscape:pageshadow="2"
     inkscape:pageopacity="0.0"
     borderopacity="1.0"
     bordercolor="#666666"
     pagecolor="#ffffff"
     id="base" />
  <metadata
     id="metadata58848">
    <rdf:RDF>
      <cc:Work
         rdf:about="">
        <dc:format>image/svg+xml</dc:format>
        <dc:type
           rdf:resource="http://purl.org/dc/dcmitype/StillImage" />
        <dc:title></dc:title>
      </cc:Work>
    </rdf:RDF>
  </metadata>
  <g
     transform="translate(-31.08603,26.269698)"
     id="layer1"
     inkscape:groupmode="layer"
     inkscape:label="Calque 1">
    <path
       d="M 60.779247,-24.274437 H 32.08366 c -0.551601,0 -0.99763,-0.446029 -0.99763,-0.997631 0,-0.550782 0.446029,-0.99763 0.99763,-0.99763 h 28.695587 c 0.550783,0 0.997631,0.446848 0.997631,0.99763 0,0.551602 -0.446848,0.997631 -0.997631,0.997631"
       style="fill:#231f20;fill-opacity:1;fill-rule:nonzero;stroke:none;stroke-width:0.818399"
       id="path57003"
       inkscape:connector-curvature="0" />
    <path
       d="M 60.779247,4.4218875 H 32.08366 c -0.551601,0 -0.99763,-0.4460287 -0.99763,-0.9976327 0,-0.5507827 0.446029,-0.9968114 0.99763,-0.9968114 h 28.695587 c 0.550783,0 0.997631,0.4460287 0.997631,0.9968114 0,0.551604 -0.446848,0.9976327 -0.997631,0.9976327"
       style="fill:#231f20;fill-opacity:1;fill-rule:nonzero;stroke:none;stroke-width:0.818399"
       id="path57007"
       inkscape:connector-curvature="0" />
    <path
       d="M 58.277722,-0.73461064 H 34.154542 V -2.0235919 h 24.12318 c 0.237338,0 0.429662,0.1923177 0.429662,0.4296596 v 0.4296597 c 0,0.23733725 -0.192317,0.42966196 -0.429662,0.42966196"
       style="fill:#231f20;fill-opacity:1;fill-rule:nonzero;stroke:none;stroke-width:0.818399"
       id="path57011"
       inkscape:connector-curvature="0" />
    <path
       d="m 40.430858,-14.146154 h 2.793201 c 0.118662,0 0.214426,0.09574 0.214426,0.214426 v 9.085067 c 0,0.1186617 -0.09574,0.2144262 -0.214426,0.2144262 h -2.793201 c -0.118661,0 -0.214426,-0.095741 -0.214426,-0.2144262 v -9.085067 c 0,-0.118662 0.09574,-0.214426 0.214426,-0.214426 m 7.396706,9.5139099 h -2.792385 c -0.118661,0 -0.215238,-0.095741 -0.215238,-0.2144262 v -9.0850667 c 0,-0.118662 0.09658,-0.214427 0.215238,-0.214427 h 2.792385 c 0.118661,0 0.215238,0.09574 0.215238,0.214427 v 9.0850667 c 0,0.1186617 -0.09658,0.2144262 -0.215238,0.2144262 m 6.734619,-8.9999529 c 1.194047,1.302074 2.039454,2.851306 2.483848,4.5363949 0.191505,0.7267383 -0.256161,1.3176248 -1.007453,1.3176248 h -6.399894 c -0.119497,0 -0.215238,-0.096576 -0.215238,-0.2144262 v -5.9391335 c 0,-0.118662 0.09574,-0.214427 0.215238,-0.214427 h 3.742547 c 0.447665,0 0.878146,0.184129 1.180952,0.513955 M 34.154542,-3.2507949 h 20.105651 c 1.74074,0 3.298973,-0.9714412 4.065815,-2.5354044 0.332272,-0.676817 0.45094,-1.4469324 0.342911,-2.2252323 -0.339637,-2.4494744 -1.403558,-4.7107134 -3.075551,-6.5390214 -0.568787,-0.621166 -1.370003,-0.977171 -2.212137,-0.977171 h -10.61384 l 2.228506,-1.830763 c 0.26107,-0.214426 0.26107,-0.615436 -7.98e-4,-0.829857 l -3.912794,-3.214678 c -0.148124,-0.121933 -0.367464,-0.10066 -0.489403,0.04828 l -0.220969,0.268436 c -0.121932,0.148124 -0.100659,0.367461 0.04828,0.489403 l 3.436463,2.823482 -2.731821,2.245691 H 34.15453 v 1.381461 h 4.466013 c 0.11785,0 0.214426,0.09574 0.214426,0.214426 v 5.9391365 c 0,0.1178497 -0.09658,0.2144262 -0.214426,0.2144262 H 34.15453 Z"
       style="fill:#231f20;fill-opacity:1;fill-rule:nonzero;stroke:none;stroke-width:0.818399"
       id="path57015"
       inkscape:connector-curvature="0" />
    <path
       d="m 73.853509,-14.576628 v 9.6947404 h -2.61313 v -9.6947404 h -3.6337 v -2.12702 h 9.87972 v 2.12702 z"
       style="fill:#231f20;fill-opacity:1;fill-rule:nonzero;stroke:none;stroke-width:0.818396"
       id="path57019"
       inkscape:connector-curvature="0" />
    <path
       d="m 83.377869,-4.8810576 v -9.2937404 c -0.72018,0.56962 -1.85859,1.12203 -2.64669,1.47393 l -0.80368,-1.80948 c 1.23988,-0.51886 2.73019,-1.30451 3.90212,-2.1933 h 2.0599 v 11.8225904 z"
       style="fill:#231f20;fill-opacity:1;fill-rule:nonzero;stroke:none;stroke-width:0.818396"
       id="path57023"
       inkscape:connector-curvature="0" />
    <path
       d="m 95.706719,-21.606508 h -27.62094 c -0.84706,0 -1.53451,-0.68663 -1.53451,-1.5345 v -1.5345 c 0,-0.84703 0.68745,-1.53531 1.53451,-1.53531 h 27.62094 c 0.84703,0 1.535319,0.68828 1.535319,1.53531 v 1.5345 c 0,0.84787 -0.688289,1.5345 -1.535319,1.5345"
       style="fill:#a50034;fill-opacity:1;fill-rule:nonzero;stroke:none;stroke-width:0.818396"
       id="path57031"
       inkscape:connector-curvature="0" />
    <path
       d="m 97.241128,2.9454426 v -1.535311 c 0,-0.84705821 -0.686628,-1.53368921 -1.535308,-1.53368921 H 68.085679 c -0.84786,0 -1.53531,0.686631 -1.53531,1.53368921 v 1.535311 c 0,0.8478705 0.68745,1.5344986 1.53531,1.5344986 H 95.70582 c 0.84868,0 1.535308,-0.6866281 1.535308,-1.5344986"
       style="fill:#a50034;fill-opacity:1;fill-rule:nonzero;stroke:none;stroke-width:0.818396"
       id="path57035"
       inkscape:connector-curvature="0" />
    <path
       d="m 88.535369,-4.8810576 v -1.5558 c 0.30053,-1.37567 1.65732,-2.62948 3.2307,-4.0024704 0.78801,-0.68784 1.64104,-1.54221 1.64104,-2.68096 0,-1.02091 -0.67022,-1.87528 -1.95926,-1.87528 -1.03719,0 -1.7575,0.75281 -2.04321,1.07099 l -1.23892,-1.6397 c 1.13874,-0.98844 2.19351,-1.45827 3.78585,-1.45827 2.075671,0 4.033601,1.2078 4.033601,3.61793 0,2.02563 -1.287672,2.98018 -2.712091,4.2705704 -0.60255,0.55243 -1.79138,1.59099 -1.94168,2.27611 h 4.873121 v 1.97688 z"
       style="fill:#231f20;fill-opacity:1;fill-rule:nonzero;stroke:none;stroke-width:1.35402"
       id="path47032"
       inkscape:connector-curvature="0" />
  </g>
</svg>
