<?xml version="1.0"?>
<svg width="30.427089" height="30.427089" xmlns="http://www.w3.org/2000/svg" xmlns:svg="http://www.w3.org/2000/svg" version="1.1">
 <metadata id="metadata4455">image/svg+xml</metadata>
 <g class="layer">
  <title>Layer 1</title>
  <g id="layer1" transform="translate(0 0.34) translate(-0.5 0) translate(712 -6) matrix(1 0 0 1 -948.25 -176)">
   <g id="g16244" transform="matrix(1.3416409,0,0,-1.3417,-348.92648,729.28626)">
    <path d="m454.11,385.49l-12.47,0c-2.82,0 -5.1,2.28 -5.1,5.1l0,12.47c0,2.82 2.28,5.1 5.1,5.1l12.47,0c2.82,0 5.1,-2.28 5.1,-5.1l0,-12.47c0,-2.82 -2.28,-5.1 -5.1,-5.1" fill="#008b5b" fill-rule="nonzero" id="path351"/>
    <path d="m447.09,400.75l-1.23,0l0,-7.84l1.31,0c2.31,0 4.09,0.88 4.09,4.03c0,3.37 -2.54,3.81 -4.17,3.81m-0.5,-9.92l-3.38,0l0,12.01l3.5,0c3.51,0 7.28,-0.78 7.28,-5.73c0,-5.26 -3.72,-6.28 -7.4,-6.28" fill="#ffffff" fill-rule="nonzero" id="path355"/>
   </g>
  </g>
 </g>
</svg>