<?xml version="1.0"?>
<svg width="30.696184" height="30.696184" xmlns="http://www.w3.org/2000/svg" xmlns:svg="http://www.w3.org/2000/svg" version="1.1">
 <metadata id="metadata4455">image/svg+xml</metadata>
 <g class="layer">
  <title>Layer 1</title>
  <g id="layer1" transform="translate(0 -3.58) translate(-1.71 0) translate(-8 -9) translate(-34 -28) matrix(1 0 0 1 -173 -176)">
   <g id="g500" transform="matrix(3.8380091,0,0,3.8381789,-440.34714,-529.23043)">
    <g id="g46710" transform="matrix(0.35277777,0,0,-0.35277777,177.39574,202.31147)">
     <path d="m0,0l-12.47,0c-2.81,0 -5.1,2.28 -5.1,5.1l0,12.47c0,2.81 2.29,5.1 5.1,5.1l12.47,0c2.82,0 5.1,-2.29 5.1,-5.1l0,-12.47c0,-2.82 -2.28,-5.1 -5.1,-5.1" fill="#c4cc15" fill-rule="nonzero" id="path46712"/>
    </g>
    <g id="g46714" transform="matrix(0.35277777,0,0,-0.35277777,174.49175,200.45516)">
     <path d="m0,0c-0.2,0 -0.41,0 -0.61,0.02l0.07,1.97l0.27,-0.02c1.41,0 2.23,0.82 2.23,2.66l0,7.51l2.65,0l0,-7.73c0,-2.2 -1.17,-4.41 -4.61,-4.41" fill="#231f20" fill-rule="nonzero" id="path46716"/>
    </g>
   </g>
  </g>
 </g>
</svg>