<?xml version="1.0"?>
<svg width="30.427089" height="30.427089" xmlns="http://www.w3.org/2000/svg" xmlns:svg="http://www.w3.org/2000/svg" version="1.1">
 <metadata id="metadata4455">image/svg+xml</metadata>
 <g class="layer">
  <title>Layer 1</title>
  <g id="layer1" transform="translate(-202.351 -181.653)">
   <g id="g27479" transform="matrix(1.1591269,0,0,-1.1591269,202.35131,828.18607)">
    <g id="g366">
     <path d="m20.34,531.53l-14.43,0c-3.27,0 -5.91,2.64 -5.91,5.9l0,14.44c0,3.26 2.64,5.91 5.91,5.91l14.43,0c3.27,0 5.91,-2.65 5.91,-5.91l0,-14.44c0,-3.26 -2.64,-5.9 -5.91,-5.9" fill="#25303b" fill-rule="nonzero" id="path315" stroke-width="1.16"/>
     <path d="m24.54,537.43l0,14.44c0,2.32 -1.88,4.2 -4.2,4.2l-14.43,0c-2.32,0 -4.2,-1.88 -4.2,-4.2l0,-14.44c0,-2.32 1.88,-4.2 4.2,-4.2l14.43,0c2.32,0 4.2,1.88 4.2,4.2" fill="#ffffff" fill-rule="nonzero" id="path27" stroke-width="1.16"/>
    </g>
    <g id="g373">
     <path d="m23.32,61.33c-0.61,0 -0.96,0.48 -0.96,1.01l0,10.28c0,0.61 0.61,0.92 1.18,0.92c0.65,0 1.18,-0.31 1.18,-0.92l0,-3.98l1.01,0l1.96,4.42c0.18,0.35 0.49,0.48 0.84,0.48c0.69,0 1.7,-0.66 1.31,-1.44l-1.88,-3.94c1.13,-0.57 2.1,-1.58 2.1,-3.37c0,-2.36 -1.75,-3.46 -3.46,-3.46l-3.28,0zm1.4,2.01l0.83,0c1.09,0 2.06,0.49 2.06,1.71c0,1.49 -1.36,1.84 -2.19,1.84l-0.7,0l0,-3.55z" fill="#25303b" fill-rule="nonzero" id="path326" stroke-width="1.54" transform="matrix(0.75000002,0,0,-0.75000002,1.0184095e-4,595.27601)"/>
     <path d="m15.88,540.98c0,0.39 -0.26,0.81 -0.72,0.81l-2.5,0l0,2.27l2.07,0c0.46,0 0.72,0.39 0.72,0.75c0,0.4 -0.26,0.76 -0.72,0.76l-2.07,0l0,2.07l2.3,0c0.46,0 0.73,0.46 0.73,0.82c0,0.39 -0.27,0.82 -0.73,0.82l-3.34,0c-0.46,0 -0.73,-0.36 -0.73,-0.76l0,-7.68c0,-0.46 0.46,-0.68 0.89,-0.68l3.38,0c0.46,0 0.72,0.45 0.72,0.82" fill="#25303b" fill-rule="nonzero" id="path324" stroke-width="1.16"/>
     <path d="m6.39,61.33c-0.61,0 -0.97,0.48 -0.97,1.01l0,10.28c0,0.61 0.62,0.92 1.19,0.92c0.65,0 1.18,-0.31 1.18,-0.92l0,-3.98l1,0l1.97,4.42c0.18,0.35 0.48,0.48 0.83,0.48c0.7,0 1.71,-0.66 1.32,-1.44l-1.88,-3.94c1.13,-0.57 2.09,-1.58 2.09,-3.37c0,-2.36 -1.75,-3.46 -3.45,-3.46l-3.28,0zm1.4,2.01l0.83,0c1.09,0 2.05,0.49 2.05,1.71c0,1.49 -1.35,1.84 -2.18,1.84l-0.7,0l0,-3.55z" fill="#25303b" fill-rule="nonzero" id="path322" stroke-width="1.54" transform="matrix(0.75000002,0,0,-0.75000002,1.0184095e-4,595.27601)"/>
    </g>
   </g>
  </g>
 </g>
</svg>