<?xml version="1.0"?>
<svg width="30.696184000000002" height="30.696184000000002" xmlns="http://www.w3.org/2000/svg" xmlns:svg="http://www.w3.org/2000/svg" version="1.1">
 <metadata id="metadata4455">image/svg+xml</metadata>
 <g class="layer">
  <title>Layer 1</title>
  <g id="layer1" transform="translate(-182.049 -216.581)">
   <g id="g4250" transform="matrix(3.83818 0 0 3.83801 -439.746 -456.331)">
    <g id="g46650" transform="matrix(0.35277777,0,0,-0.35277777,168.22373,175.32958)">
     <path d="m0,0l-12.6,0c-2.77,0 -5.03,-2.27 -5.03,-5.03l0,-12.6c0,-2.77 2.26,-5.04 5.03,-5.04l12.6,0c2.77,0 5.03,2.27 5.03,5.04l0,12.6c0,2.76 -2.26,5.03 -5.03,5.03" fill="#ffffff" fill-rule="nonzero" id="path46652"/>
    </g>
    <g id="g46654" transform="matrix(0.35277777,0,0,-0.35277777,168.22373,175.32958)">
     <path d="m0,0l-12.6,0c-2.77,0 -5.03,-2.27 -5.03,-5.03l0,-12.6c0,-2.77 2.26,-5.04 5.03,-5.04l12.6,0c2.77,0 5.03,2.27 5.03,5.04l0,12.6c0,2.76 -2.26,5.03 -5.03,5.03m3.56,-17.64c0,-1.96 -1.6,-3.56 -3.56,-3.56l-12.6,0c-1.97,0 -3.56,1.6 -3.56,3.56l0,12.61c0,1.96 1.59,3.56 3.56,3.56l12.6,0c1.96,0 3.56,-1.6 3.56,-3.56l0,-12.61z" fill="#231f20" fill-rule="nonzero" id="path46656"/>
    </g>
    <g id="g46658" transform="matrix(0.35277777,0,0,-0.35277777,167.18928,181.10149)">
     <path d="m0,0l0.13,0.1c0.41,0.33 0.79,0.84 1.07,1.62c0.38,1.1 0.66,2.08 0.73,3.29c0.11,1.49 -0.51,3.8 -0.91,4.88l-0.14,0.38c-0.09,0.24 -0.42,0.76 -1.02,1.38c-0.5,0.53 -0.99,0.56 -1.74,0.56l-3.01,0c-0.75,0 -1.24,-0.03 -1.75,-0.56c-0.59,-0.62 -0.92,-1.14 -1.01,-1.38l-0.14,-0.38c-0.41,-1.08 -1.02,-3.39 -0.92,-4.88c0.08,-1.21 0.35,-2.19 0.74,-3.29c0.28,-0.78 0.66,-1.29 1.06,-1.62l0.14,-0.1l-2.2,-2.44c-0.18,-0.2 -0.18,-0.53 0,-0.72c0.18,-0.2 0.47,-0.2 0.65,0l0.76,0.84l8.35,0l0.76,-0.84c0.18,-0.2 0.47,-0.2 0.65,0c0.18,0.19 0.18,0.52 0,0.72l-2.2,2.44zm-0.74,0.89c-0.42,0 -0.75,0.34 -0.75,0.76c0,0.41 0.33,0.75 0.75,0.75c0.42,0 0.76,-0.34 0.76,-0.75c0,-0.42 -0.34,-0.76 -0.76,-0.76m-6.83,4.84c-0.47,0 0.26,4.05 0.59,4.05l7.11,0c0.35,0 1.2,-4.05 0.63,-4.05l-8.33,0zm0.77,-4.08c0,0.41 0.33,0.75 0.75,0.75c0.42,0 0.76,-0.34 0.76,-0.75c0,-0.42 -0.34,-0.76 -0.76,-0.76c-0.42,0 -0.75,0.34 -0.75,0.76m0.15,-2.95l0.81,0.9c0.39,-0.09 0.76,-0.09 1.02,-0.09l2.87,0c0.26,0 0.62,0 1.02,0.09l0.81,-0.9l-6.53,0z" fill="#231f20" fill-rule="nonzero" id="path46660"/>
    </g>
   </g>
  </g>
 </g>
</svg>