<?xml version="1.0" encoding="UTF-8" standalone="no"?>
<svg
   xmlns:dc="http://purl.org/dc/elements/1.1/"
   xmlns:cc="http://creativecommons.org/ns#"
   xmlns:rdf="http://www.w3.org/1999/02/22-rdf-syntax-ns#"
   xmlns:svg="http://www.w3.org/2000/svg"
   xmlns="http://www.w3.org/2000/svg"
   xmlns:sodipodi="http://sodipodi.sourceforge.net/DTD/sodipodi-0.dtd"
   xmlns:inkscape="http://www.inkscape.org/namespaces/inkscape"
   sodipodi:docname="IDF Tram 13 logo.svg"
   inkscape:version="1.0beta2 (6465177, 2020-02-22)"
   id="svg58851"
   version="1.1"
   viewBox="0 0 66.214432 30.691668"
   height="30.691668mm"
   width="66.214432mm">
  <defs
     id="defs58845" />
  <sodipodi:namedview
     inkscape:window-maximized="0"
     inkscape:window-y="0"
     inkscape:window-x="0"
     inkscape:window-height="967"
     inkscape:window-width="1264"
     fit-margin-bottom="0"
     fit-margin-right="0"
     fit-margin-left="0"
     fit-margin-top="0"
     showgrid="false"
     inkscape:document-rotation="0"
     inkscape:current-layer="layer1"
     inkscape:document-units="mm"
     inkscape:cy="48.973516"
     inkscape:cx="125.12964"
     inkscape:zoom="4.4314041"
     inkscape:pageshadow="2"
     inkscape:pageopacity="0.0"
     borderopacity="1.0"
     bordercolor="#666666"
     pagecolor="#ffffff"
     id="base" />
  <metadata
     id="metadata58848">
    <rdf:RDF>
      <cc:Work
         rdf:about="">
        <dc:format>image/svg+xml</dc:format>
        <dc:type
           rdf:resource="http://purl.org/dc/dcmitype/StillImage" />
        <dc:title></dc:title>
      </cc:Work>
    </rdf:RDF>
  </metadata>
  <g
     transform="translate(-31.08603,26.269698)"
     id="layer1"
     inkscape:groupmode="layer"
     inkscape:label="Calque 1">
    <path
       d="M 60.779247,-24.274437 H 32.08366 c -0.551601,0 -0.99763,-0.446029 -0.99763,-0.997631 0,-0.550782 0.446029,-0.99763 0.99763,-0.99763 h 28.695587 c 0.550783,0 0.997631,0.446848 0.997631,0.99763 0,0.551602 -0.446848,0.997631 -0.997631,0.997631"
       style="fill:#231f20;fill-opacity:1;fill-rule:nonzero;stroke:none;stroke-width:0.818399"
       id="path57003"
       inkscape:connector-curvature="0" />
    <path
       d="M 60.779247,4.4218875 H 32.08366 c -0.551601,0 -0.99763,-0.4460287 -0.99763,-0.9976327 0,-0.5507827 0.446029,-0.9968114 0.99763,-0.9968114 h 28.695587 c 0.550783,0 0.997631,0.4460287 0.997631,0.9968114 0,0.551604 -0.446848,0.9976327 -0.997631,0.9976327"
       style="fill:#231f20;fill-opacity:1;fill-rule:nonzero;stroke:none;stroke-width:0.818399"
       id="path57007"
       inkscape:connector-curvature="0" />
    <path
       d="M 58.277722,-0.73461064 H 34.154542 V -2.0235919 h 24.12318 c 0.237338,0 0.429662,0.1923177 0.429662,0.4296596 v 0.4296597 c 0,0.23733725 -0.192317,0.42966196 -0.429662,0.42966196"
       style="fill:#231f20;fill-opacity:1;fill-rule:nonzero;stroke:none;stroke-width:0.818399"
       id="path57011"
       inkscape:connector-curvature="0" />
    <path
       d="m 40.430858,-14.146154 h 2.793201 c 0.118662,0 0.214426,0.09574 0.214426,0.214426 v 9.085067 c 0,0.1186617 -0.09574,0.2144262 -0.214426,0.2144262 h -2.793201 c -0.118661,0 -0.214426,-0.095741 -0.214426,-0.2144262 v -9.085067 c 0,-0.118662 0.09574,-0.214426 0.214426,-0.214426 m 7.396706,9.5139099 h -2.792385 c -0.118661,0 -0.215238,-0.095741 -0.215238,-0.2144262 v -9.0850667 c 0,-0.118662 0.09658,-0.214427 0.215238,-0.214427 h 2.792385 c 0.118661,0 0.215238,0.09574 0.215238,0.214427 v 9.0850667 c 0,0.1186617 -0.09658,0.2144262 -0.215238,0.2144262 m 6.734619,-8.9999529 c 1.194047,1.302074 2.039454,2.851306 2.483848,4.5363949 0.191505,0.7267383 -0.256161,1.3176248 -1.007453,1.3176248 h -6.399894 c -0.119497,0 -0.215238,-0.096576 -0.215238,-0.2144262 v -5.9391335 c 0,-0.118662 0.09574,-0.214427 0.215238,-0.214427 h 3.742547 c 0.447665,0 0.878146,0.184129 1.180952,0.513955 M 34.154542,-3.2507949 h 20.105651 c 1.74074,0 3.298973,-0.9714412 4.065815,-2.5354044 0.332272,-0.676817 0.45094,-1.4469324 0.342911,-2.2252323 -0.339637,-2.4494744 -1.403558,-4.7107134 -3.075551,-6.5390214 -0.568787,-0.621166 -1.370003,-0.977171 -2.212137,-0.977171 h -10.61384 l 2.228506,-1.830763 c 0.26107,-0.214426 0.26107,-0.615436 -7.98e-4,-0.829857 l -3.912794,-3.214678 c -0.148124,-0.121933 -0.367464,-0.10066 -0.489403,0.04828 l -0.220969,0.268436 c -0.121932,0.148124 -0.100659,0.367461 0.04828,0.489403 l 3.436463,2.823482 -2.731821,2.245691 H 34.15453 v 1.381461 h 4.466013 c 0.11785,0 0.214426,0.09574 0.214426,0.214426 v 5.9391365 c 0,0.1178497 -0.09658,0.2144262 -0.214426,0.2144262 H 34.15453 Z"
       style="fill:#231f20;fill-opacity:1;fill-rule:nonzero;stroke:none;stroke-width:0.818399"
       id="path57015"
       inkscape:connector-curvature="0" />
    <path
       d="M 95.714476,-21.618163 H 68.076199 c -0.85399,0 -1.52497,-0.69886 -1.52497,-1.52755 v -1.55292 c 0,-0.8261 0.67077,-1.52503 1.52497,-1.52503 h 27.638277 c 0.85398,0 1.52756,0.69886 1.52756,1.52503 v 1.55292 c 0,0.82862 -0.67364,1.52755 -1.52756,1.52755"
       style="fill:#845d2e;fill-opacity:1;fill-rule:nonzero;stroke:none;stroke-width:2.54168"
       id="path40598"
       inkscape:connector-curvature="0" />
    <path
       d="m 97.241236,2.9398761 v -1.527559 c 0,-0.85405117 -0.67364,-1.52503027 -1.52755,-1.52503027 H 68.075399 c -0.85398,0 -1.52503,0.6707595 -1.52503,1.52503027 v 1.527559 c 0,0.853982 0.67076,1.552911 1.52503,1.552911 h 27.638287 c 0.85398,0 1.52755,-0.69886 1.52755,-1.552911"
       style="fill:#845d2e;fill-opacity:1;fill-rule:nonzero;stroke:none;stroke-width:2.54168"
       id="path40602"
       inkscape:connector-curvature="0" />
    <path
       d="m 74.157889,-14.578883 v 9.7041699 h -2.61281 v -9.7041699 h -3.62444 v -2.12231 h 9.88711 v 2.12231 z"
       style="fill:#231f20;fill-opacity:1;fill-rule:nonzero;stroke:none;stroke-width:2.54168"
       id="path40606"
       inkscape:connector-curvature="0" />
    <path
       d="m 83.681359,-4.8747131 v -9.3152599 c -0.69886,0.5944 -1.863,1.13872 -2.64076,1.47424 l -0.80066,-1.78426 c 1.24289,-0.54396 2.74249,-1.32171 3.90656,-2.20113 h 2.04609 v 11.8264099 z"
       style="fill:#231f20;fill-opacity:1;fill-rule:nonzero;stroke:none;stroke-width:2.54168"
       id="path40610"
       inkscape:connector-curvature="0" />
    <path
       d="m 91.289099,-4.5902633 c -1.70804,0 -2.63825,-0.4142798 -3.44143,-0.8794199 l 0.93028,-1.83764 c 0.4928,0.3609599 1.32164,0.7752299 2.33067,0.7752299 1.36998,0 2.22397,-0.8006699 2.22397,-1.8096899 0,-1.3725099 -1.03447,-1.8376498 -2.24933,-1.8376498 h -1.21754 v -1.96726 h 1.2429 c 1.16414,0 1.88851,-0.5944 1.88851,-1.49961 0,-0.75232 -0.59439,-1.45125 -1.81221,-1.45125 -1.11329,0 -1.8097,0.54396 -2.19861,0.87941 l -0.85398,-1.75883 c 1.00902,-0.67364 2.09687,-1.05989 3.57104,-1.05989 2.4324,0 3.804907,1.44874 3.804907,3.02716 0,1.21486 -0.673636,2.20105 -1.916398,2.66619 v 0.0288 c 1.293688,0.25937 2.302718,1.26826 2.302718,2.9228997 0,2.07152 -1.863007,3.80492 -4.605497,3.80492"
       style="fill:#231f20;fill-opacity:1;fill-rule:nonzero;stroke:none;stroke-width:2.54168"
       id="path40614"
       inkscape:connector-curvature="0" />
  </g>
</svg>
